<svg id="audio-playlist" xmlns="http://www.w3.org/2000/svg" width="122.879" height="121.612" viewBox="0 0 122.879 121.612">
  <path id="Path_2" data-name="Path 2" d="M73.12,0H88.6V5.17c38.74,8.87,43.17,27.47,20.7,56.79,2.39-29.09-.54-35.33-20.7-36.68V98.82a11.52,11.52,0,0,1,.05,1.18c0,9.56-10.03,19.04-22.4,21.18s-22.4-3.88-22.4-13.44c0-13.04,17.91-24.36,29.26-20.37L73.12,0ZM5.69,73.78a5.69,5.69,0,0,1,0-11.38H53.32a5.69,5.69,0,0,1,0,11.38Zm0-27.64a5.7,5.7,0,0,1,0-11.39H53.32a5.69,5.69,0,1,1,0,11.38H5.69Zm0-27.64a5.7,5.7,0,0,1,0-11.39H53.32a5.69,5.69,0,0,1,0,11.38H5.69Z" fill="#fff" fill-rule="evenodd"/>
</svg>
