<svg xmlns="http://www.w3.org/2000/svg" width="122.882" height="74.82" viewBox="0 0 122.882 74.82">
  <path id="play-pause_1_" data-name="play-pause (1)" d="M51.93,43.9c5.49-3.55,5.47-7.5,0-10.64L9,1.86C4.55-.94-.12.71,0,6.55L.18,68.23c.38,6.34,4,8.07,9.33,5.14ZM105.84,0h13.1a4,4,0,0,1,3.94,3.94V70.88a4,4,0,0,1-3.94,3.94h-13.1a4,4,0,0,1-3.94-3.94V3.94A4,4,0,0,1,105.84,0ZM71.94,0H85a4,4,0,0,1,4,3.94V70.88a4,4,0,0,1-4,3.94H71.94A4,4,0,0,1,68,70.88V3.94A4,4,0,0,1,71.94,0Z" transform="translate(0.002)" fill="#fff" fill-rule="evenodd"/>
</svg>
