<svg id="play-button-black" xmlns="http://www.w3.org/2000/svg" width="95.21" height="95.21" viewBox="0 0 95.21 95.21">
  <defs>
    <style>
      .cls-1 {
        fill-rule: evenodd;
      }
    </style>
  </defs>
  <path id="Path_15" data-name="Path 15" class="cls-1" d="M47.6,0A47.6,47.6,0,1,1,0,47.6,47.607,47.607,0,0,1,47.6,0ZM64.55,50.549c2.425-1.565,2.417-3.308,0-4.7L39.5,31.458c-1.976-1.24-4.037-.511-3.983,2.069L35.6,62.621c.17,2.8,1.767,3.564,4.122,2.27L64.55,50.549ZM47.6,9.67A37.935,37.935,0,1,1,9.67,47.6,37.935,37.935,0,0,1,47.6,9.67Z"/>
</svg>
