<svg xmlns="http://www.w3.org/2000/svg" width="122.849" height="118.663" viewBox="0 0 122.849 118.663">
  <g id="replay-video" transform="translate(-0.014 0.001)">
    <path id="Path_8" data-name="Path 8" d="M16.68,22.2a52.39,52.39,0,0,0-5.06,7.46A59.92,59.92,0,0,0,4.13,64.2,57.778,57.778,0,0,0,17.5,96.47a65.929,65.929,0,0,0,9.13,8.97,57.885,57.885,0,0,0,74.55-.76,65.343,65.343,0,0,0,8.91-9.13,57.631,57.631,0,0,0,12.07-27.14,58.543,58.543,0,0,0-3.07-29.66,63.426,63.426,0,0,0-15.78-24.21A53.318,53.318,0,0,0,79.2,1.48,52.048,52.048,0,0,0,70.21.11a54.033,54.033,0,0,0-9.4.22,3.662,3.662,0,1,0,.8,7.28,46.038,46.038,0,0,1,15.87.98A46.041,46.041,0,0,1,98.32,19.88a55.848,55.848,0,0,1,13.94,21.43,51.188,51.188,0,0,1,2.7,25.96A50.423,50.423,0,0,1,104.4,90.96a58.751,58.751,0,0,1-7.91,8.13,50.574,50.574,0,0,1-65.26.65,58.179,58.179,0,0,1-8.13-7.97,50.4,50.4,0,0,1-11.65-28.2,52.609,52.609,0,0,1,6.57-30.33A47.667,47.667,0,0,1,23.03,26l.53,14.7a3.657,3.657,0,0,0,7.31-.25l-.85-23.42a3.647,3.647,0,0,0-3.78-3.52l-.37.03h0L3.17,16.73a3.66,3.66,0,1,0,1.01,7.25l12.5-1.78Zm69.1,36.51L53.11,80.65V37.12L85.78,58.71Z" fill="#fff"/>
  </g>
</svg>
