<svg xmlns="http://www.w3.org/2000/svg" width="90.337" height="77.714" viewBox="0 0 90.337 77.714">
  <defs>
    <style>
      .cls-1 {
        fill: #fff;
        fill-rule: evenodd;
      }
    </style>
  </defs>
  <g id="Shuffle" transform="translate(0 0.002)">
    <path id="Path_16" data-name="Path 16" class="cls-1" d="M0,58.406c-.015-1.434.559-2.25,1.845-2.338H12.2c4.4,0,6.535.118,10.277-2.874a15.881,15.881,0,0,0,2.25-2.205c3.345-3.977,4.536-8.792,5.786-13.894,2.419-9.895,6.271-20.349,16.526-24.487,5.837-2.352,13.835-1.9,20.15-1.9h3.874l.007-7.388c0-3.683.867-4.323,3.521-1.8L88.959,15.173c1.735,1.647,1.492,2.72-.162,4.308L74.609,33.08c-2.477,2.507-3.595,1.8-3.543-1.661V22.744c-24.995-.382-23.943,1.228-30.912,25.061C37.58,55.186,33.676,60.361,28.692,63.75c-5.212,3.543-10.057,4.7-16.188,4.7H4.889C.522,68.448,0,68.242,0,63.772V58.406ZM.169,19.3c-.015,1.434.559,2.25,1.845,2.338H12.821c4.4,0,6.535-.118,10.277,2.874a15.881,15.881,0,0,1,2.25,2.205,19.654,19.654,0,0,1,2.176,3.2A49.569,49.569,0,0,1,31.8,20c.515-.875,1.059-1.728,1.639-2.558a26.248,26.248,0,0,0-4.124-3.477c-5.212-3.543-10.057-4.7-16.188-4.7H5.058c-4.367,0-4.889.206-4.889,4.675V19.3ZM39.381,59.141A21.392,21.392,0,0,0,47.666,65.1c5.837,2.352,13.387,1.9,19.7,1.9h3.874l.007,7.388c0,3.683.867,4.323,3.521,1.8L89.142,62.537c1.735-1.647,1.492-2.72-.162-4.308l-14.188-13.6c-2.477-2.507-3.595-1.8-3.543,1.661v8.675c-18.217.279-22.363-.507-25.965-10.174-.2.691-.47,1.639-1.419,4.889-.022.074-.044.14-.066.206h0a44.676,44.676,0,0,1-4.418,9.255Z"/>
  </g>
</svg>
