<svg xmlns="http://www.w3.org/2000/svg" width="122.88" height="92.175" viewBox="0 0 122.88 92.175">
  <g id="volume-line" transform="translate(0 -0.005)">
    <path id="Path_11" data-name="Path 11" d="M78.37,9.74a3.29,3.29,0,1,1,0-6.58,44.51,44.51,0,0,1,0,89.02,3.29,3.29,0,0,1,0-6.58,37.93,37.93,0,1,0,0-75.86ZM10.47,21.76H34.74L55.4.97A3.271,3.271,0,0,1,60.03.96,3.207,3.207,0,0,1,61,3.28h.01V88.77a3.288,3.288,0,0,1-5.64,2.3L34.91,73.81H10.47A10.5,10.5,0,0,1,0,63.35V32.23A10.5,10.5,0,0,1,10.47,21.76Zm25.62,6.57H10.47a3.927,3.927,0,0,0-3.9,3.9V63.35a3.927,3.927,0,0,0,3.9,3.9H36.09v.02a3.228,3.228,0,0,1,2.1.77L54.44,81.73V11.23L38.59,27.18a3.275,3.275,0,0,1-2.5,1.15Zm40.62.19a2.72,2.72,0,1,1,0-5.44,25.27,25.27,0,1,1,0,50.54,2.72,2.72,0,0,1,0-5.44,19.83,19.83,0,1,0,0-39.66Z" fill="#fff"/>
  </g>
</svg>
