<svg xmlns="http://www.w3.org/2000/svg" width="106.083" height="122.879" viewBox="0 0 106.083 122.879">
  <g id="volume-mute-line" transform="translate(0 -0.001)">
    <path id="Path_12" data-name="Path 12" d="M11.3,89.02a4.378,4.378,0,1,1-4.52,7.5,14.1,14.1,0,0,1-4.96-5.1A13.863,13.863,0,0,1,0,84.56V43.02A14,14,0,0,1,13.97,29.05h32.4L73.96,1.29a4.37,4.37,0,0,1,7.47,3.08h.01V27.12a4.39,4.39,0,0,1-8.78,0V14.99L51.5,36.29a4.372,4.372,0,0,1-3.33,1.54H13.97a5.224,5.224,0,0,0-5.2,5.2V84.57a5.108,5.108,0,0,0,.66,2.54,5.266,5.266,0,0,0,1.87,1.91Zm2.91,29.75a4.384,4.384,0,1,1-6.2-6.2L98.6,21.98a4.384,4.384,0,0,1,6.2,6.2L14.21,118.77ZM72.67,72.31a4.39,4.39,0,0,1,8.78,0v46.18a4.393,4.393,0,0,1-7.42,3.18L51.17,103.05a4.371,4.371,0,1,1,5.52-6.78l15.99,13.02V72.31Z" fill="#fff"/>
  </g>
</svg>
